<svg width="224" height="131" viewBox="0 0 224 131" fill="none" xmlns="http://www.w3.org/2000/svg"><path d="M52.6 130.8c-8.63 0-16.13-1.2-22.5-3.6-6.35-2.52-11.63-5.94-15.83-10.26a44.54 44.54 0 0 1-9.36-15.12 62.13 62.13 0 0 1-3.78-18.54C1 80.04.89 76.38.77 72.3V59.7c.12-4.32.24-8.16.36-11.52A60.2 60.2 0 0 1 4.9 29.82a43.5 43.5 0 0 1 9.72-14.94A44.8 44.8 0 0 1 30.47 4.8C36.83 2.4 44.2 1.2 52.6 1.2c8.52 0 15.9 1.2 22.14 3.6A43 43 0 0 1 90.4 14.88a42.27 42.27 0 0 1 9.9 14.94 53.83 53.83 0 0 1 3.78 18.36c.24 3.36.36 7.2.36 11.52.12 4.2.12 8.4 0 12.6 0 4.08-.12 7.74-.36 10.98a55.47 55.47 0 0 1-3.78 18.54 43.2 43.2 0 0 1-9.54 15.12c-4.08 4.32-9.3 7.74-15.66 10.26-6.24 2.4-13.74 3.6-22.5 3.6Zm0-26.1c6.25 0 10.75-1.98 13.5-5.94 2.89-4.08 4.39-9.54 4.5-16.38.25-3.48.37-7.14.37-10.98.12-3.84.12-7.68 0-11.52 0-3.84-.12-7.38-.36-10.62-.12-6.6-1.62-11.94-4.5-16.02-2.76-4.08-7.26-6.18-13.5-6.3-6.24.12-10.74 2.22-13.5 6.3s-4.26 9.42-4.5 16.02c-.12 3.24-.24 6.78-.36 10.62V71.4l.36 10.98c.24 6.84 1.8 12.3 4.68 16.38 2.88 3.96 7.32 5.94 13.32 5.94ZM126 129a5.02 5.02 0 0 1-3.42-1.26 4.39 4.39 0 0 1-1.26-3.24v-12.78c0-.84.24-2.1.72-3.78.48-1.8 1.74-3.48 3.78-5.04l18.72-18.36c9.6-7.32 17.46-13.5 23.58-18.54 6.24-5.16 10.86-9.72 13.86-13.68 3-3.96 4.5-7.68 4.5-11.16 0-4.08-1.08-7.44-3.24-10.08-2.04-2.76-5.64-4.14-10.8-4.14-3.48 0-6.42.78-8.82 2.34a14.21 14.21 0 0 0-5.22 5.76 28.28 28.28 0 0 0-2.52 7.38 5.05 5.05 0 0 1-2.52 3.24c-1.08.6-2.28.9-3.6.9h-22.5a3.66 3.66 0 0 1-3.78-3.78 40.95 40.95 0 0 1 3.6-16.2 42.9 42.9 0 0 1 9.9-13.32 45.66 45.66 0 0 1 15.3-9.18c6-2.16 12.72-3.24 20.16-3.24 10.2 0 18.84 1.62 25.92 4.86 7.2 3.24 12.66 7.8 16.38 13.68 3.72 5.76 5.58 12.54 5.58 20.34 0 5.88-1.32 11.4-3.96 16.56-2.52 5.04-6.18 9.9-10.98 14.58a180.12 180.12 0 0 1-16.74 14.22l-16.56 16.74h46.26c1.32 0 2.4.42 3.24 1.26a4.1 4.1 0 0 1 1.44 3.24v18.18a4.1 4.1 0 0 1-1.44 3.24 4.39 4.39 0 0 1-3.24 1.26h-92.34Z" fill="#fff"/></svg>