<svg width="150" height="40" fill="none" xmlns="http://www.w3.org/2000/svg"><path fill="#444" d="M0 0h150v40H0z"/><circle cx="20" cy="20" r="20" fill="#fff" fill-opacity=".3"/><path d="m25.44 14.07-11.82 4.56c-.8.33-.8.78-.14.98l3.03.94 7.02-4.43c.33-.2.64-.09.39.13l-5.7 5.13-.2 3.13c.3 0 .44-.14.61-.3l1.48-1.44 3.06 2.27c.57.31.97.15 1.12-.53l2-9.48c.21-.83-.3-1.2-.85-.96Z" fill="#444"/><circle cx="75" cy="20" r="20" fill="#fff" fill-opacity=".3"/><g clip-path="url(#a)"><path d="M82.67 16.67c-.1-.32-.27-.61-.51-.84-.25-.24-.56-.41-.9-.5C80.01 15 75 15 75 15a51.1 51.1 0 0 0-6.26.32c-.34.09-.64.26-.9.5-.24.24-.42.53-.51.85a19.4 19.4 0 0 0-.33 3.67c0 1.22.1 2.45.33 3.66.09.32.27.61.51.85.25.23.56.4.9.5 1.27.32 6.26.32 6.26.32 2.09.02 4.18-.08 6.26-.31.34-.09.65-.26.9-.5.24-.23.42-.52.5-.84.24-1.21.35-2.44.34-3.67.02-1.23-.1-2.46-.33-3.68Zm-9.27 5.95v-4.57l4.18 2.29-4.18 2.28Z" fill="#444"/></g><circle cx="130" cy="20" r="20" fill="#fff" fill-opacity=".3"/><path d="M132.7 13.16c1.5-.5 2.6.3 3.2 1.1.5-.2 1.1-.4 1.7-.6 0 .8-.5 1.4-.8 1.6.7.2 1.2-.4 1.2-.4-.1.9-.9 1.7-1.4 1.9-.2 6.3-2.8 10.4-8.9 10.3h-.4c-.3 0-3.7-.4-4.3-1.8 2 .2 3.4-.4 4.1-1.1-.8-.3-2.4-.4-2.6-2.8.3.2.5.3 1.1.2-1.1-.8-2.3-1.5-2.2-3.5.3.3.9.5 1.2.4-.6-.2-1.8-3.1-.8-4.6 1.6 1.7 3.3 3.4 6.3 3.5.2-2.1 1-3.5 2.6-4.2Z" fill="#444"/><defs><clipPath id="a"><path fill="#fff" transform="translate(67 15)" d="M0 0h16v11H0z"/></clipPath></defs></svg>